    <svg width="32" height="32" viewBox="0 0 32 32" xmlns="http://www.w3.org/2000/svg">
    <path d="M8 24h16l-1 6H9l-1-6z" fill="#E5E5E5" stroke="#CCCCCC" stroke-width="0.5"/>
    <ellipse cx="16" cy="24" rx="8" ry="1.5" fill="#8B4513"/>
    <line x1="16" y1="24" x2="16" y2="8" stroke="#654321" stroke-width="1"/>
    <ellipse cx="12" cy="10" rx="4" ry="2.5" fill="#4A7C59" transform="rotate(-20 12 10)"/>
    <ellipse cx="20" cy="10" rx="4" ry="2.5" fill="#4A7C59" transform="rotate(20 20 10)"/>
    <ellipse cx="10" cy="16" rx="3.5" ry="2.2" fill="#5A8B68" transform="rotate(-30 10 16)"/>
    <ellipse cx="22" cy="16" rx="3.5" ry="2.2" fill="#5A8B68" transform="rotate(30 22 16)"/>
    <ellipse cx="14" cy="20" rx="3" ry="1.8" fill="#6B9A78" transform="rotate(-15 14 20)"/>
    <ellipse cx="18" cy="20" rx="3" ry="1.8" fill="#6B9A78" transform="rotate(15 18 20)"/>
    <ellipse cx="16" cy="6" rx="2.5" ry="1.5" fill="#4A7C59"/>
    <ellipse cx="13" cy="8" rx="2" ry="1.2" fill="#5A8B68" transform="rotate(-25 13 8)"/>
    <ellipse cx="19" cy="8" rx="2" ry="1.2" fill="#5A8B68" transform="rotate(25 19 8)"/>
    </svg>